<svg xmlns="http://www.w3.org/2000/svg" width="865.07892mm" height="200mm" viewBox="0 0 865.07892 200"><defs><linearGradient id="a" x1="188.01807" x2="118.62015" y1="509.60645" y2="549.67316" gradientTransform="matrix(.35278 0 0 -.35278 -122.886 284.986)" gradientUnits="userSpaceOnUse" spreadMethod="pad"><stop offset="0" style="stop-opacity:1;stop-color:#4dc6f4"/><stop offset="0.35326" style="stop-opacity:1;stop-color:#4dc6f4"/><stop offset="0.79999" style="stop-opacity:1;stop-color:#2e3192"/><stop offset="1" style="stop-opacity:1;stop-color:#1082ce"/></linearGradient><linearGradient id="b" x1="203.18506" x2="162.94009" y1="524.36914" y2="572.33044" gradientTransform="matrix(.35278 0 0 -.35278 -122.886 284.986)" gradientUnits="userSpaceOnUse" spreadMethod="pad"><stop offset="0" style="stop-opacity:1;stop-color:#1082ce"/><stop offset="0.39999" style="stop-opacity:1;stop-color:#1082ce"/><stop offset="0.79999" style="stop-opacity:1;stop-color:#2e3192"/><stop offset="1" style="stop-opacity:1;stop-color:#2e3192"/></linearGradient><linearGradient id="c" x1="124.92529" x2="222.54514" y1="527.42188" y2="595.77679" gradientTransform="matrix(.35278 0 0 -.35278 -122.886 284.986)" gradientUnits="userSpaceOnUse" spreadMethod="pad"><stop offset="0" style="stop-opacity:1;stop-color:#4dc6f4"/><stop offset="0.09999" style="stop-opacity:1;stop-color:#4dc6f4"/><stop offset="0.79999" style="stop-opacity:1;stop-color:#1c63b7"/><stop offset="1" style="stop-opacity:1;stop-color:#1082ce"/></linearGradient><linearGradient id="d" x1="167.0874" x2="120.00618" y1="523.30859" y2="550.49078" gradientTransform="matrix(.35278 0 0 -.35278 -122.886 284.986)" gradientUnits="userSpaceOnUse" spreadMethod="pad"><stop offset="0" style="stop-opacity:1;stop-color:#4dc6f4"/><stop offset="0.35326" style="stop-opacity:1;stop-color:#4dc6f4"/><stop offset="0.79999" style="stop-opacity:1;stop-color:#2e3192"/><stop offset="1" style="stop-opacity:1;stop-color:#1082ce"/></linearGradient><linearGradient id="e" x1="146.47314" x2="142.54385" y1="534.70361" y2="523.90796" gradientTransform="matrix(.35278 0 0 -.35278 -122.886 284.986)" gradientUnits="userSpaceOnUse" spreadMethod="pad"><stop offset="0" style="stop-opacity:1;stop-color:#1c63b7"/><stop offset="0.29999" style="stop-opacity:1;stop-color:#1082ce"/><stop offset="1" style="stop-opacity:1;stop-color:#1082ce"/></linearGradient><linearGradient id="f" x1="131.30908" x2="146.87401" y1="546.32764" y2="557.22644" gradientTransform="matrix(.35278 0 0 -.35278 -122.886 284.986)" gradientUnits="userSpaceOnUse" spreadMethod="pad"><stop offset="0" style="stop-opacity:1;stop-color:#4dc6f4"/><stop offset="1" style="stop-opacity:1;stop-color:#1082ce"/></linearGradient><linearGradient id="g" x1="143.34229" x2="128.05446" y1="480.96631" y2="496.25391" gradientTransform="matrix(.35278 0 0 -.35278 -122.886 284.986)" gradientUnits="userSpaceOnUse" spreadMethod="pad"><stop offset="0" style="stop-opacity:1;stop-color:#4dc6f4"/><stop offset="0.35326" style="stop-opacity:1;stop-color:#4dc6f4"/><stop offset="0.79999" style="stop-opacity:1;stop-color:#2e3192"/><stop offset="1" style="stop-opacity:1;stop-color:#1082ce"/></linearGradient><linearGradient id="h" x1="172.34814" x2="180.86531" y1="537.20459" y2="540.3045" gradientTransform="matrix(.35278 0 0 -.35278 -122.886 284.986)" gradientUnits="userSpaceOnUse" spreadMethod="pad"><stop offset="0" style="stop-opacity:1;stop-color:#4dc6f4"/><stop offset="0.64999" style="stop-opacity:1;stop-color:#1c63b7"/><stop offset="1" style="stop-opacity:1;stop-color:#1082ce"/></linearGradient><linearGradient id="i" x1="41.395512" x2="145.66727" y1="565.91016" y2="517.28644" gradientTransform="matrix(.35278 0 0 -.35278 -122.886 284.986)" gradientUnits="userSpaceOnUse" spreadMethod="pad"><stop offset="0" style="stop-opacity:1;stop-color:#cce310"/><stop offset="0.5" style="stop-opacity:1;stop-color:#00a650"/><stop offset="1" style="stop-opacity:1;stop-color:#006b30"/></linearGradient><linearGradient id="j" x1="138.271" x2="88.521118" y1="526.67969" y2="568.42438" gradientTransform="matrix(.35278 0 0 -.35278 -122.886 284.986)" gradientUnits="userSpaceOnUse" spreadMethod="pad"><stop offset="0" style="stop-opacity:1;stop-color:#cce310"/><stop offset="0.5" style="stop-opacity:1;stop-color:#00a650"/><stop offset="1" style="stop-opacity:1;stop-color:#006b30"/></linearGradient><linearGradient id="k" x1="162.79346" x2="180.78247" y1="527.23291" y2="505.7944" gradientTransform="matrix(.35278 0 0 -.35278 -122.886 284.986)" gradientUnits="userSpaceOnUse" spreadMethod="pad"><stop offset="0" style="stop-opacity:1;stop-color:#cce310"/><stop offset="0.55055" style="stop-opacity:1;stop-color:#00a650"/><stop offset="1" style="stop-opacity:1;stop-color:#006b30"/></linearGradient><linearGradient id="l" x1="72.662109" x2="179.07129" y1="539.10352" y2="539.10352" gradientTransform="matrix(.35278 0 0 -.35278 -122.886 284.986)" gradientUnits="userSpaceOnUse" spreadMethod="pad"><stop offset="0" style="stop-opacity:1;stop-color:#cce310"/><stop offset="0.54999" style="stop-opacity:1;stop-color:#00a650"/><stop offset="1" style="stop-opacity:1;stop-color:#006b30"/></linearGradient><linearGradient id="m" x1="107.83008" x2="180.46523" y1="517.56787" y2="604.13123" gradientTransform="matrix(.35278 0 0 -.35278 -122.886 284.986)" gradientUnits="userSpaceOnUse" spreadMethod="pad"><stop offset="0" style="stop-opacity:1;stop-color:#d6e60d"/><stop offset="0.55055" style="stop-opacity:1;stop-color:#00a650"/><stop offset="1" style="stop-opacity:1;stop-color:#006a2f"/></linearGradient></defs><path d="M-61.3 79.605c-.5-.332-1.052-.6-1.659-.791-6.06-1.896-15.083 4.39-20.156 14.043-5.075 9.655-5.712 17.383 1.786 20.915 1.511.712 3.777.674 6.369.187l-.521-3.938c-1.903.172-3.039.148-4.069-.173-4.887-1.53-5.5-9.14-1.373-16.996C-76.794 84.997-69.486 79.867-64.6 81.4c4.079 1.277 4.391 6.684 2.176 13.03 2.845-4.506 1.856-11.439 1.124-14.824z" style="fill:url(#a);fill-opacity:1;fill-rule:nonzero;stroke:none;stroke-width:.352778" transform="translate(528.142 -418.735) scale(5.41244)"/><path d="M-78.952 87.475s1.314-.457 2.219-.6c0 0-.791.84-1.25 1.468 0 0-1.304-.655-.97-.868z" style="fill:#1c63b7;fill-opacity:1;fill-rule:nonzero;stroke:none;stroke-width:.352778" transform="translate(528.142 -418.735) scale(5.41244)"/><path d="M-59.652 96.408c2.92-7.445 2.339-14.257-1.935-17.453.732 3.386 2.008 10.968-.837 15.473-.1.285-.197.57-.305.857z" style="fill:url(#b);fill-opacity:1;fill-rule:nonzero;stroke:none;stroke-width:.352778" transform="translate(528.142 -418.735) scale(5.41244)"/><path d="M-80.343 108.736c-4.888-1.53-5.5-9.139-1.373-16.994 4.129-7.856 11.436-12.986 16.324-11.454 4.26 1.334 4.417 7.175 1.868 13.887l3.079 1.12c3.294-8.393 2.052-15.914-3.308-17.592-6.058-1.897-15.083 4.39-20.155 14.043-5.075 9.655-4.273 19.018 1.785 20.914 1.593.5 3.306.796 5.185.25l-.05-4.06c-1.19.23-2.326.207-3.355-.114z" style="fill:url(#c);fill-opacity:1;fill-rule:nonzero;stroke:none;stroke-width:.352778" transform="translate(528.142 -418.735) scale(5.41244)"/><path d="m-78.739 88.618.13.106 9.179 6.95-2.546 3.275-7.848-7.957-.734-1.422" style="fill:url(#d);fill-opacity:1;fill-rule:nonzero;stroke:none;stroke-width:.352778" transform="translate(528.142 -418.735) scale(5.41244)"/><path d="m-70.238 94.094.854 1.553-2.525 3.213-1.174-1.688z" style="fill:url(#e);fill-opacity:1;fill-rule:nonzero;stroke:none;stroke-width:.352778" transform="translate(528.142 -418.735) scale(5.41244)"/><path d="m-79.762 86.865.129.106 9.39 7.121-2.679 3.241-8.13-8.17" style="fill:url(#f);fill-opacity:1;fill-rule:nonzero;stroke:none;stroke-width:.352778" transform="translate(528.142 -418.735) scale(5.41244)"/><path d="M-83.527 100.94c0-.812.57-3.022.57-3.022-.404.274-1.164.458-1.17.452a17.555 17.555 0 0 0-.31 2.385c.512.317.91.47.91.184z" style="fill:#2e3192;fill-opacity:1;fill-rule:nonzero;stroke:none;stroke-width:.352778" transform="translate(528.142 -418.735) scale(5.41244)"/><path d="M-85.577 95.444c-.369.943-.906 2.68-1.105 3.613.136.116 1.363 1.15 2.245 1.698.043-.764.148-1.562.31-2.385-.99-.789-1.45-2.926-1.45-2.926z" style="fill:#1082ce;fill-opacity:1;fill-rule:nonzero;stroke:none;stroke-width:.352778" transform="translate(528.142 -418.735) scale(5.41244)"/><path d="m-75.188 110.224-1.8-1.374.05 4.06 1.978 1.05z" style="fill:url(#g);fill-opacity:1;fill-rule:nonzero;stroke:none;stroke-width:.352778" transform="translate(528.142 -418.735) scale(5.41244)"/><path d="m-63.524 94.175.795 1.11 3.077 1.123-.745-1.27z" style="fill:url(#h);fill-opacity:1;fill-rule:nonzero;stroke:none;stroke-width:.352778" transform="translate(528.142 -418.735) scale(5.41244)"/><path d="M-65.747 97.8c1.135 2.229 1.35 3.81.376 5.396-2.381 3.876-10.262 2.985-18.373-1.706-5.488-3.174-9.503-7.096-10.793-10.502-2.071-2.692-1.336-5.811-.1-8.243-.83.45-1.497 1.109-1.998 2.016-3.255 5.874 2.175 14.714 12.143 20.478 9.97 5.767 20.668 6.264 23.62 1.459 1.33-2.165 2.07-5.7-.879-8.19l-3.942-.809z" style="fill:url(#i);fill-opacity:1;fill-rule:nonzero;stroke:none;stroke-width:.352778" transform="translate(528.142 -418.735) scale(5.41244)"/><path d="M-94.537 90.988c-.616-1.628-.611-3.14.159-4.394 1.925-3.135 6.333-3.019 12.824-.485l.895-1.367c-6.7-2.6-11.248-3.474-13.977-1.997-1.237 2.432-1.972 5.55.099 8.243z" style="fill:url(#j);fill-opacity:1;fill-rule:nonzero;stroke:none;stroke-width:.352778" transform="translate(528.142 -418.735) scale(5.41244)"/><path d="m-65.38 96.272-.537 1.982s1.56 3.135.874 4.207c2.544-1.302 3.057-3.248-.337-6.189z" style="fill:url(#k);fill-opacity:1;fill-rule:nonzero;stroke:none;stroke-width:.352778" transform="translate(528.142 -418.735) scale(5.41244)"/><path d="M-65.38 96.272c1.19 2.296 1.433 3.908.44 5.522-2.382 3.875-10.26 2.986-18.373-1.707-8.111-4.69-13.014-11.02-10.634-14.895 1.925-3.136 6.797-2.984 13.288-.45l.477-1.353c-8.74-3.393-14.036-2.748-16.36 1.03-2.951 4.804 2.736 13.373 12.707 19.137 9.968 5.766 20.442 6.545 23.395 1.74 1.33-2.165.9-5.096-.879-8.188z" style="fill:url(#l);fill-opacity:1;fill-rule:nonzero;stroke:none;stroke-width:.352778" transform="translate(528.142 -418.735) scale(5.41244)"/><path d="M-65.38 96.272c1.19 2.296 1.433 3.908.44 5.522-2.382 3.875-10.26 2.986-18.373-1.707-8.111-4.69-13.014-11.02-10.634-14.895 1.925-3.136 6.797-2.984 13.288-.45l.477-1.353c-8.74-3.393-14.036-2.748-16.36 1.03-2.951 4.804 2.736 13.373 12.707 19.137 9.968 5.766 20.442 6.545 23.395 1.74 1.33-2.165.9-5.096-.879-8.188z" style="fill:url(#m);fill-opacity:1;fill-rule:nonzero;stroke:none;stroke-width:.352778" transform="translate(528.142 -418.735) scale(5.41244)"/><path d="M-63.624 96.672v1.667l3.774 2.633s-.615-2.895-1.404-3.863z" style="fill:#006b30;fill-opacity:1;fill-rule:nonzero;stroke:none;stroke-width:.352778" transform="translate(528.142 -418.735) scale(5.41244)"/><path d="M-48.702 90.179c0-.44-.108-.855-.297-1.214h1.766v-1.396h-3.11v-.777h-1.432v.777h-3.11v1.396h1.73c-.189.36-.297.773-.297 1.214 0 1.387 1.063 2.511 2.375 2.511s2.375-1.124 2.375-2.511m-3.474 0c0-.643.492-1.162 1.099-1.162.608 0 1.099.52 1.099 1.162 0 .642-.491 1.162-1.1 1.162-.606 0-1.098-.52-1.098-1.162zM21.967 89.164h-1.996v1.395h1.996v2.6h1.434v-6.367h-1.434zM35.098 88.197h-1.69v1.395h1.69v.807h-1.69v1.395h1.69v1.364h1.433v-6.366h-1.433zM19.64 93.18c-1.312 0-2.374 1.124-2.374 2.512 0 1.386 1.062 2.51 2.374 2.51s2.374-1.124 2.374-2.51c0-1.388-1.062-2.513-2.374-2.513m0 3.675c-.606 0-1.1-.521-1.1-1.162 0-.644.494-1.162 1.1-1.162.606 0 1.098.518 1.098 1.162 0 .64-.492 1.162-1.098 1.162zM32.804 93.18c-1.31 0-2.375 1.124-2.375 2.512 0 1.386 1.064 2.51 2.375 2.51 1.31 0 2.374-1.124 2.374-2.51 0-1.388-1.063-2.513-2.374-2.513m0 3.675c-.607 0-1.099-.521-1.099-1.162 0-.644.492-1.162 1.1-1.162.606 0 1.098.518 1.098 1.162 0 .64-.492 1.162-1.099 1.162zM60.82 86.792v5.263h-1.996v1.394h1.997v1.381h1.431v-8.038zM-43.748 86.792h-1.431v7.553h1.431v-3.786h1.792v-1.395h-1.792zM-50.479 96.096v-1.751h-1.385v1.751c0 .603.2 2.004 2.051 2.004h6.286v-1.463h-6.286c-.666 0-.666-.192-.666-.54zM54.397 96.096v-1.95h-1.384v1.95c0 .603.2 2.004 2.05 2.004h7.122v-1.463h-7.122c-.666 0-.666-.192-.666-.54zM-30.306 89.176c0-.603-.2-2.005-2.049-2.005h-6.286v1.464h6.286c.665 0 .665.193.665.54v1.492h-9.254v1.465h5.64v2.35h-3.337v1.465h6.286c.665 0 .665.192.665.54v1.951h1.384v-1.95c0-.603-.2-2.006-2.049-2.006h-1.564v-2.35h5.596v-1.465h-1.983zM-19.425 89.842v3.17h1.384v-3.17c0-.604-.2-2.006-2.05-2.006h-6.286V89.3h6.286c.666 0 .666.193.666.542z" style="fill:#2e3192;fill-opacity:1;fill-rule:nonzero;stroke:none;stroke-width:.352778" transform="translate(528.142 -418.735) scale(5.41244)"/><path d="M-21.319 91.327h-1.383v3.168h-1.118v-3.168h-1.385v3.168h-2.556v1.465h12.62v-1.465h-6.178zM3.934 89.842v3.17H5.32v-3.17c0-.604-.201-2.006-2.051-2.006H-.674V89.3h3.943c.665 0 .665.193.665.542zM43.266 87.836h-5.451V89.3h5.45c.667 0 .667.193.667.542v5.874h1.384v-5.874c0-.604-.2-2.006-2.05-2.006z" style="fill:#2e3192;fill-opacity:1;fill-rule:nonzero;stroke:none;stroke-width:.352778" transform="translate(528.142 -418.735) scale(5.41244)"/><path d="M9.391 86.929H8.006v7.81H2.33v-3.412H.93v3.412h-2.988v1.464H8.006v2.274H9.39V92.13h1.526v-1.464H9.39ZM48.524 86.929H47.14v11.548h1.384V92.13h1.526v-1.464h-1.526zM19.457 91.915c-.04-.116-.848-2.408-2.482-3.183h2.64V87.27h-6.922v1.463h2.096c-1.633.775-2.441 3.067-2.48 3.183l1.3.5c.008-.025.89-2.476 2.272-2.476 1.385 0 2.266 2.451 2.275 2.475zM32.086 90.682h-1.608v-1.973h1.608v-1.464h-6.848v1.464h1.406v1.973h-1.406v1.463h6.848v-1.463m-4.059-1.973h1.066v1.973h-1.066zM54.402 94.174h1.383v-2.043h3.033v-1.464h-1.842a2.59 2.59 0 0 0 .518-1.565c0-1.386-1.061-2.511-2.374-2.511-1.31 0-2.373 1.125-2.373 2.511 0 .593.195 1.136.518 1.565h-1.928v1.464h3.065v2.043m.718-6.234c.608 0 1.099.52 1.099 1.162 0 .642-.491 1.164-1.099 1.164-.606 0-1.098-.522-1.098-1.164 0-.642.492-1.162 1.098-1.162zM-6.406 89.102c0-1.386-1.064-2.511-2.375-2.511-1.31 0-2.375 1.125-2.375 2.511 0 .593.195 1.136.52 1.565h-4.455v1.465h4.36v2.35h-2.218v1.465h6.286c.667 0 .667.192.667.54v1.951h1.383v-1.95c0-.603-.198-2.006-2.05-2.006h-.169v-2.35h4.361v-1.465h-4.454a2.59 2.59 0 0 0 .52-1.565m-2.376-1.162c.607 0 1.1.52 1.1 1.162 0 .642-.493 1.164-1.1 1.164-.606 0-1.098-.522-1.098-1.164 0-.642.492-1.162 1.098-1.162m.566 6.542h-1.13v-2.35h1.13z" style="fill:#2e3192;fill-opacity:1;fill-rule:nonzero;stroke:none;stroke-width:.352778" transform="translate(528.142 -418.735) scale(5.41244)"/><path d="M-54.83 102.029h.552v2.063h.02c.113-.165.228-.317.336-.457l1.308-1.606h.686l-1.55 1.816 1.67 2.464h-.654l-1.403-2.102-.413.47v1.632h-.552ZM-50.176 106.378c-.825 0-1.473-.61-1.473-1.58 0-1.03.68-1.633 1.524-1.633.883 0 1.48.642 1.48 1.575 0 1.143-.794 1.638-1.524 1.638h-.007m.02-.419c.533 0 .933-.501.933-1.2 0-.52-.26-1.175-.921-1.175-.654 0-.94.61-.94 1.194 0 .673.381 1.181.92 1.181h.007zM-47.947 104.194c0-.362-.006-.673-.025-.959h.489l.025.603h.02c.139-.412.482-.673.856-.673.057 0 .102.006.153.02v.52c-.064-.006-.12-.013-.197-.013-.394 0-.673.299-.75.712a1.75 1.75 0 0 0-.018.266v1.639h-.56l.007-2.115zM-45.61 104.867c.013.756.489 1.067 1.048 1.067.4 0 .647-.07.85-.153l.102.394c-.197.09-.54.197-1.029.197-.94 0-1.51-.629-1.51-1.55 0-.933.552-1.663 1.447-1.663 1.003 0 1.264.883 1.264 1.448 0 .114-.007.203-.02.266l-2.152-.006m1.632-.4c.006-.349-.146-.908-.769-.908-.571 0-.812.521-.857.908zM-40.594 105.572c0 .267.013.527.045.737h-.502l-.05-.388h-.02c-.165.241-.501.457-.94.457-.622 0-.94-.438-.94-.882 0-.743.661-1.15 1.849-1.143v-.064c0-.254-.07-.717-.699-.711-.292 0-.59.083-.806.228l-.127-.374c.254-.159.628-.267 1.016-.267.946 0 1.174.641 1.174 1.257v1.15m-.546-.832c-.61-.013-1.302.095-1.302.692 0 .369.242.534.521.534a.776.776 0 0 0 .756-.515.57.57 0 0 0 .025-.178v-.533zM-37.806 102.029v4.28h-.559v-4.28zM-36.873 104.067c0-.324-.006-.578-.025-.832h.495l.032.502h.013c.152-.286.508-.572 1.016-.572.425 0 1.085.254 1.085 1.308v1.836h-.558v-1.772c0-.496-.185-.915-.711-.915-.363 0-.648.26-.75.572a.829.829 0 0 0-.038.26v1.855h-.559v-2.242zM-33.437 105.743c.171.102.463.216.743.216.4 0 .59-.197.59-.457 0-.267-.159-.413-.565-.565-.559-.203-.82-.502-.82-.87 0-.495.407-.902 1.061-.902.311 0 .584.083.75.19l-.134.4a1.258 1.258 0 0 0-.628-.177c-.33 0-.508.19-.508.42 0 .26.177.374.577.526.527.197.807.464.807.927 0 .546-.425.927-1.143.927-.337 0-.648-.089-.864-.216zM-30.186 102.498v.737h.8v.426h-.8v1.657c0 .38.108.597.419.597.152 0 .241-.013.324-.038l.025.425c-.108.038-.28.076-.495.076-.26 0-.47-.089-.603-.235-.153-.171-.216-.444-.216-.806v-1.676h-.476v-.426h.476v-.565l.546-.172zM-28.504 102.67c-.209 0-.349-.165-.349-.362 0-.197.146-.356.362-.356s.356.16.356.356a.35.35 0 0 1-.362.362h-.007m-.266 3.639v-3.074h.559v3.074zM-26.624 102.498v.737h.8v.426h-.8v1.657c0 .38.108.597.42.597.152 0 .24-.013.323-.038l.026.425c-.108.038-.28.076-.496.076-.26 0-.47-.089-.603-.235-.153-.171-.216-.444-.216-.806v-1.676h-.476v-.426h.476v-.565l.546-.172zM-22.636 105.47c0 .318.006.597.025.839h-.495l-.032-.502h-.013c-.14.247-.47.571-1.016.571-.482 0-1.06-.273-1.06-1.346v-1.797h.559v1.696c0 .584.184.984.686.984.374 0 .635-.26.736-.515a.763.763 0 0 0 .051-.285v-1.88h.559v2.235zM-21.049 102.498v.737h.8v.426h-.8v1.657c0 .38.108.597.42.597.152 0 .24-.013.323-.038l.026.425c-.108.038-.28.076-.496.076-.26 0-.47-.089-.603-.235-.152-.171-.216-.444-.216-.806v-1.676h-.476v-.426h.476v-.565l.546-.172zM-19.353 104.867c.012.756.489 1.067 1.047 1.067.4 0 .648-.07.851-.153l.102.394c-.197.09-.54.197-1.029.197-.94 0-1.511-.629-1.511-1.55 0-.933.552-1.663 1.448-1.663 1.003 0 1.263.883 1.263 1.448 0 .114-.006.203-.019.266l-2.152-.006m1.632-.4c.006-.349-.146-.908-.769-.908-.571 0-.812.521-.857.908zM-15.118 106.309v-2.648h-.425v-.426h.425v-.146c0-.432.102-.826.362-1.073.21-.203.489-.286.743-.286.203 0 .368.045.476.09l-.07.43a.867.867 0 0 0-.362-.069c-.47 0-.596.42-.596.889v.165h.742v.426h-.736v2.648zM-12.152 106.378c-.826 0-1.474-.61-1.474-1.58 0-1.03.68-1.633 1.524-1.633.883 0 1.48.642 1.48 1.575 0 1.143-.794 1.638-1.524 1.638h-.006m.018-.419c.534 0 .934-.501.934-1.2 0-.52-.26-1.175-.92-1.175-.655 0-.94.61-.94 1.194 0 .673.38 1.181.92 1.181h.006zM-9.924 104.194a14.6 14.6 0 0 0-.025-.959h.489l.025.603h.02c.139-.412.482-.673.856-.673.058 0 .102.006.153.02v.52c-.064-.006-.12-.013-.197-.013-.393 0-.673.299-.75.712a1.751 1.751 0 0 0-.018.266v1.639h-.559l.006-2.115zM-3.53 106.175c-.196.102-.609.203-1.13.203-1.206 0-2.108-.762-2.108-2.171 0-1.346.908-2.248 2.235-2.248.528 0 .87.114 1.016.19l-.14.451a1.961 1.961 0 0 0-.857-.178c-1.003 0-1.67.642-1.67 1.766 0 1.054.604 1.72 1.639 1.72.342 0 .686-.07.908-.177zM-.367 105.47c0 .318.006.597.025.839h-.495l-.032-.502H-.88c-.14.247-.47.571-1.016.571-.483 0-1.06-.273-1.06-1.346v-1.797h.558v1.696c0 .584.184.984.686.984.374 0 .635-.26.736-.515a.767.767 0 0 0 .051-.285v-1.88h.559v2.235zM.554 104.194c0-.362-.007-.673-.026-.959h.49l.025.603h.019c.14-.412.482-.673.857-.673a.57.57 0 0 1 .152.02v.52c-.063-.006-.12-.013-.196-.013-.394 0-.674.299-.75.712a1.75 1.75 0 0 0-.019.266v1.639H.547l.007-2.115zM2.643 104.194c0-.362-.007-.673-.026-.959h.49l.025.603h.019c.14-.412.482-.673.857-.673a.57.57 0 0 1 .152.02v.52c-.063-.006-.12-.013-.196-.013-.394 0-.673.299-.75.712a1.75 1.75 0 0 0-.019.266v1.639h-.559l.007-2.115zM4.992 102.67c-.21 0-.349-.165-.349-.362 0-.197.146-.356.362-.356s.356.16.356.356a.35.35 0 0 1-.362.362h-.007m-.267 3.639v-3.074h.56v3.074zM8.39 106.2a2.16 2.16 0 0 1-.883.178c-.927 0-1.53-.628-1.53-1.574 0-.947.647-1.639 1.65-1.639.33 0 .623.083.775.165l-.127.426a1.368 1.368 0 0 0-.647-.146c-.705 0-1.086.527-1.086 1.168 0 .711.457 1.15 1.066 1.15.318 0 .527-.077.686-.147zM11.603 105.47c0 .318.006.597.025.839h-.495l-.032-.502h-.013c-.14.247-.47.571-1.016.571-.482 0-1.06-.273-1.06-1.346v-1.797h.559v1.696c0 .584.184.984.685.984.375 0 .635-.26.737-.515a.766.766 0 0 0 .05-.285v-1.88h.56v2.235zM12.517 101.8h.559v4.509h-.56zM16.562 105.47c0 .318.006.597.025.839h-.495l-.032-.502h-.013c-.14.247-.47.571-1.016.571-.482 0-1.06-.273-1.06-1.346v-1.797h.559v1.696c0 .584.184.984.686.984.374 0 .635-.26.736-.515a.767.767 0 0 0 .05-.285v-1.88h.56v2.235zM17.476 104.067c0-.324-.013-.578-.025-.832h.489l.025.495h.02c.17-.292.456-.565.97-.565.413 0 .731.254.864.616h.013c.095-.178.222-.305.35-.4.183-.14.38-.216.672-.216.413 0 1.016.267 1.016 1.334v1.81h-.546v-1.74c0-.597-.222-.947-.666-.947-.324 0-.566.235-.667.502a.998.998 0 0 0-.045.28v1.905H19.4v-1.842c0-.495-.216-.845-.641-.845-.343 0-.603.28-.692.56a.765.765 0 0 0-.045.272v1.855h-.546v-2.242zM26.258 105.572c0 .267.013.527.045.737H25.8l-.05-.388h-.02c-.165.241-.501.457-.94.457-.622 0-.94-.438-.94-.882 0-.743.661-1.15 1.848-1.143v-.064c0-.254-.07-.717-.698-.711-.292 0-.59.083-.807.228l-.126-.374c.253-.159.628-.267 1.016-.267.946 0 1.174.641 1.174 1.257v1.15m-.546-.832c-.61-.013-1.302.095-1.302.692 0 .369.242.534.52.534a.776.776 0 0 0 .757-.515.576.576 0 0 0 .025-.178v-.533zM27.14 104.067c0-.324-.006-.578-.025-.832h.496l.032.502h.012c.153-.286.508-.572 1.016-.572.426 0 1.086.254 1.086 1.308v1.836h-.559v-1.772c0-.496-.184-.915-.711-.915-.362 0-.648.26-.75.572a.83.83 0 0 0-.037.26v1.855h-.56v-2.242zM33.307 101.8v3.715c0 .273.006.584.025.794h-.501l-.026-.534h-.013c-.171.343-.54.603-1.041.603-.743 0-1.321-.628-1.321-1.562-.006-1.028.635-1.65 1.378-1.65.476 0 .794.221.927.463h.013v-1.83h.559m-.56 2.687c0-.076-.005-.165-.025-.241a.823.823 0 0 0-.806-.642c-.578 0-.92.508-.92 1.182 0 .628.31 1.143.907 1.143a.847.847 0 0 0 .82-.667.957.957 0 0 0 .025-.241zM37.783 104.302h-1.657v1.543h1.854v.464h-2.413v-4.28h2.318v.463h-1.76v1.353h1.658zM38.83 103.235l.604 1.721c.102.286.184.54.248.794h.02c.069-.254.158-.508.26-.794l.596-1.72h.584l-1.206 3.073h-.534l-1.168-3.074h.597zM43.733 105.572c0 .267.013.527.045.737h-.502l-.051-.388h-.019c-.165.241-.502.457-.94.457-.622 0-.94-.438-.94-.882 0-.743.66-1.15 1.848-1.143v-.064c0-.254-.07-.717-.698-.711-.292 0-.59.083-.807.228l-.127-.374c.254-.159.63-.267 1.016-.267.946 0 1.175.641 1.175 1.257v1.15m-.546-.832c-.61-.013-1.302.095-1.302.692 0 .369.241.534.52.534a.776.776 0 0 0 .757-.515.576.576 0 0 0 .025-.178v-.533zM44.616 101.8h.559v4.509h-.56zM48.66 105.47c0 .318.007.597.026.839h-.495l-.032-.502h-.013c-.14.247-.47.571-1.016.571-.482 0-1.06-.273-1.06-1.346v-1.797h.559v1.696c0 .584.184.984.685.984.375 0 .635-.26.737-.515a.766.766 0 0 0 .05-.285v-1.88h.56v2.235zM51.74 105.572c0 .267.013.527.045.737h-.502l-.05-.388h-.02c-.165.241-.501.457-.94.457-.622 0-.94-.438-.94-.882 0-.743.661-1.15 1.848-1.143v-.064c0-.254-.07-.717-.698-.711-.292 0-.59.083-.806.228l-.127-.374c.253-.159.628-.267 1.015-.267.947 0 1.175.641 1.175 1.257v1.15m-.546-.832c-.61-.013-1.302.095-1.302.692 0 .369.242.534.521.534a.775.775 0 0 0 .756-.515.565.565 0 0 0 .025-.178v-.533zM53.27 102.498v.737h.8v.426h-.8v1.657c0 .38.109.597.42.597.152 0 .241-.013.324-.038l.025.425c-.108.038-.28.076-.495.076-.26 0-.47-.089-.603-.235-.153-.171-.216-.444-.216-.806v-1.676h-.477v-.426h.477v-.565l.546-.172zM54.954 102.67c-.21 0-.35-.165-.35-.362 0-.197.146-.356.362-.356s.356.16.356.356a.35.35 0 0 1-.362.362h-.006m-.267 3.639v-3.074h.558v3.074zM57.41 106.378c-.825 0-1.473-.61-1.473-1.58 0-1.03.68-1.633 1.525-1.633.882 0 1.48.642 1.48 1.575 0 1.143-.795 1.638-1.525 1.638h-.006m.019-.419c.533 0 .933-.501.933-1.2 0-.52-.26-1.175-.92-1.175-.655 0-.94.61-.94 1.194 0 .673.38 1.181.92 1.181h.007zM59.633 104.067c0-.324-.006-.578-.025-.832h.495l.032.502h.013c.152-.286.507-.572 1.016-.572.425 0 1.085.254 1.085 1.308v1.836h-.558v-1.772c0-.496-.185-.915-.712-.915-.361 0-.647.26-.749.572a.84.84 0 0 0-.038.26v1.855h-.559v-2.242z" style="fill:#656263;fill-opacity:1;fill-rule:nonzero;stroke:none;stroke-width:.352778" transform="translate(528.142 -418.735) scale(5.41244)"/><path d="M-59.06 193.569c-.924-1.929-2.416-3.262-4.315-3.857-6.342-1.986-15.804 4.583-21.09 14.642-3.4 6.471-4.39 13.209-2.583 17.583.905 2.189 2.47 3.686 4.527 4.329 1.424.447 3.332.881 5.467.26l.113-.034-.055-4.514-.183.035c-1.244.241-2.389.203-3.403-.114-1.564-.49-2.757-1.634-3.45-3.31-.469-1.137-.698-2.48-.698-3.956 0-3.034.97-6.628 2.816-10.14a29.74 29.74 0 0 1 1.127-1.946l7.866 7.905 2.992-3.619-9.05-6.862c4.381-5.574 9.915-8.501 13.81-7.281 1.288.404 2.245 1.23 2.841 2.459 1.233 2.539.868 6.817-1.002 11.74l-.055.148 3.483 1.267.055-.14c2.226-5.673 2.513-10.992.787-14.595z" style="fill:#1082ce;fill-opacity:1;fill-rule:nonzero;stroke:none;stroke-width:.352778" transform="translate(133.865 -236.115)"/><path d="m-60.763 209.91-.035-.061-4.6-.946.15.289c1.281 2.47 1.41 4.033.463 5.573-2.384 3.882-10.31 3.115-18.846-1.822-6.102-3.528-10.467-7.99-11.392-11.643-.347-1.368-.206-2.576.418-3.591 1.849-3.013 6.55-3.153 13.593-.403l.15.059.598-1.698-.14-.055c-8.82-3.421-14.591-3.04-17.157 1.133-.877 1.427-1.064 3.17-.556 5.18 1.263 4.993 6.546 10.698 13.788 14.886 10.395 6.011 21.375 6.797 24.475 1.75 1.355-2.205 1.033-5.278-.909-8.652z" style="fill:#99d420;fill-opacity:1;fill-rule:nonzero;stroke:none;stroke-width:.352778" transform="translate(133.865 -236.115)"/><path d="M-48.702 201.287c0-.44-.108-.855-.297-1.214h1.766v-1.396h-3.11v-.777h-1.432v.777h-3.11v1.396h1.73c-.189.36-.297.773-.297 1.214 0 1.387 1.063 2.511 2.375 2.511s2.375-1.124 2.375-2.511m-3.474 0c0-.643.492-1.162 1.099-1.162.608 0 1.099.52 1.099 1.162 0 .642-.491 1.162-1.1 1.162-.606 0-1.098-.52-1.098-1.162zM21.967 200.272h-1.996v1.395h1.996v2.6h1.434V197.9h-1.434zM35.098 199.305h-1.69v1.395h1.69v.807h-1.69v1.395h1.69v1.364h1.433V197.9h-1.433zM19.64 204.287c-1.312 0-2.374 1.125-2.374 2.513 0 1.386 1.062 2.51 2.374 2.51s2.374-1.124 2.374-2.51c0-1.388-1.062-2.513-2.374-2.513m0 3.675c-.606 0-1.1-.521-1.1-1.162 0-.644.494-1.162 1.1-1.162.606 0 1.098.518 1.098 1.162 0 .64-.492 1.162-1.098 1.162zM32.804 204.287c-1.31 0-2.375 1.125-2.375 2.513 0 1.386 1.064 2.51 2.375 2.51 1.31 0 2.374-1.124 2.374-2.51 0-1.388-1.063-2.513-2.374-2.513m0 3.675c-.607 0-1.099-.521-1.099-1.162 0-.644.492-1.162 1.1-1.162.606 0 1.098.518 1.098 1.162 0 .64-.492 1.162-1.099 1.162zM60.82 197.9v5.263h-1.996v1.394h1.997v1.381h1.431V197.9zM-43.748 197.9h-1.431v7.553h1.431v-3.786h1.792v-1.395h-1.792zM-50.479 207.204v-1.751h-1.385v1.751c0 .603.2 2.004 2.051 2.004h6.286v-1.463h-6.286c-.666 0-.666-.192-.666-.54zM54.397 207.204v-1.95h-1.384v1.95c0 .603.2 2.004 2.05 2.004h7.122v-1.463h-7.122c-.666 0-.666-.192-.666-.54zM-30.306 200.284c0-.603-.2-2.006-2.049-2.006h-6.286v1.465h6.286c.665 0 .665.193.665.54v1.492h-9.254v1.465h5.64v2.35h-3.337v1.464h6.286c.665 0 .665.193.665.541v1.951h1.384v-1.951c0-.603-.2-2.005-2.049-2.005h-1.564v-2.35h5.596v-1.465h-1.983zM-19.425 200.95v3.17h1.384v-3.17c0-.604-.2-2.006-2.05-2.006h-6.286v1.464h6.286c.666 0 .666.193.666.541z" style="fill:#2e3192;fill-opacity:1;fill-rule:nonzero;stroke:none;stroke-width:.352778" transform="translate(133.865 -236.115)"/><path d="M-21.319 202.435h-1.383v3.168h-1.118v-3.168h-1.385v3.168h-2.556v1.465h12.62v-1.465h-6.178zM3.934 200.95v3.17H5.32v-3.17c0-.604-.201-2.006-2.051-2.006H-.674v1.464h3.943c.665 0 .665.193.665.541zM43.266 198.944h-5.451v1.464h5.45c.667 0 .667.193.667.541v5.875h1.384v-5.875c0-.603-.2-2.005-2.05-2.005z" style="fill:#2e3192;fill-opacity:1;fill-rule:nonzero;stroke:none;stroke-width:.352778" transform="translate(133.865 -236.115)"/><path d="M9.391 198.037H8.006v7.81H2.33v-3.412H.93v3.412h-2.988v1.464H8.006v2.274H9.39v-6.346h1.526v-1.464H9.39ZM48.524 198.037H47.14v11.548h1.384v-6.346h1.526v-1.464h-1.526zM19.457 203.023c-.04-.116-.848-2.408-2.482-3.183h2.64v-1.463h-6.922v1.463h2.096c-1.633.775-2.441 3.067-2.48 3.183l1.3.5c.008-.025.89-2.476 2.272-2.476 1.385 0 2.266 2.451 2.275 2.475zM32.086 201.79h-1.608v-1.973h1.608v-1.464h-6.848v1.464h1.406v1.973h-1.406v1.463h6.848v-1.463m-4.059-1.973h1.066v1.973h-1.066zM54.402 205.282h1.383v-2.043h3.033v-1.464h-1.842a2.59 2.59 0 0 0 .518-1.565c0-1.386-1.061-2.511-2.374-2.511-1.31 0-2.373 1.125-2.373 2.511 0 .593.195 1.136.518 1.565h-1.928v1.464h3.065v2.043m.718-6.234c.608 0 1.099.52 1.099 1.162 0 .642-.491 1.164-1.099 1.164-.606 0-1.098-.522-1.098-1.164 0-.642.492-1.162 1.098-1.162zM-6.406 200.21c0-1.386-1.064-2.511-2.375-2.511-1.31 0-2.375 1.125-2.375 2.511 0 .593.195 1.136.52 1.565h-4.455v1.465h4.36v2.35h-2.218v1.464h6.286c.667 0 .667.193.667.541v1.951h1.383v-1.951c0-.603-.198-2.005-2.05-2.005h-.169v-2.35h4.361v-1.465h-4.454a2.59 2.59 0 0 0 .52-1.565m-2.376-1.162c.607 0 1.1.52 1.1 1.162 0 .642-.493 1.164-1.1 1.164-.606 0-1.098-.522-1.098-1.164 0-.642.492-1.162 1.098-1.162m.566 6.542h-1.13v-2.35h1.13z" style="fill:#2e3192;fill-opacity:1;fill-rule:nonzero;stroke:none;stroke-width:.352778" transform="translate(133.865 -236.115)"/><path d="M-54.83 213.137h.552v2.063h.02c.113-.165.228-.317.336-.457l1.308-1.606h.686l-1.55 1.816 1.67 2.464h-.654l-1.403-2.102-.413.47v1.632h-.552ZM-50.176 217.487c-.825 0-1.473-.61-1.473-1.582 0-1.028.68-1.632 1.524-1.632.883 0 1.48.642 1.48 1.575 0 1.143-.794 1.639-1.524 1.639h-.007m.02-.42c.533 0 .933-.501.933-1.2 0-.52-.26-1.174-.921-1.174-.654 0-.94.61-.94 1.193 0 .674.381 1.181.92 1.181h.007zM-47.947 215.302c0-.362-.006-.673-.025-.959h.489l.025.604h.02c.139-.413.482-.674.856-.674.057 0 .102.007.153.02v.52a1.66 1.66 0 0 0-.197-.012c-.394 0-.673.298-.75.71a1.754 1.754 0 0 0-.018.267v1.639h-.56l.007-2.115zM-45.61 215.975c.013.756.489 1.067 1.048 1.067.4 0 .647-.07.85-.152l.102.393c-.197.09-.54.197-1.029.197-.94 0-1.51-.628-1.51-1.55 0-.933.552-1.663 1.447-1.663 1.003 0 1.264.883 1.264 1.448 0 .114-.007.203-.02.266l-2.152-.006m1.632-.4c.006-.349-.146-.908-.769-.908-.571 0-.812.52-.857.908zM-40.594 216.68c0 .267.013.527.045.737h-.502l-.05-.388h-.02c-.165.242-.501.458-.94.458-.622 0-.94-.439-.94-.883 0-.743.661-1.15 1.849-1.143v-.064c0-.254-.07-.717-.699-.71-.292 0-.59.082-.806.228l-.127-.375c.254-.159.628-.267 1.016-.267.946 0 1.174.642 1.174 1.258v1.15m-.546-.833c-.61-.013-1.302.096-1.302.692 0 .369.242.534.521.534a.776.776 0 0 0 .756-.514.573.573 0 0 0 .025-.178v-.534zM-37.806 213.137v4.28h-.559v-4.28zM-36.873 215.175c0-.324-.006-.578-.025-.832h.495l.032.502h.013c.152-.286.508-.572 1.016-.572.425 0 1.085.254 1.085 1.308v1.836h-.558v-1.772c0-.495-.185-.914-.711-.914-.363 0-.648.26-.75.571a.829.829 0 0 0-.038.26v1.855h-.559v-2.242zM-33.437 216.852c.171.101.463.215.743.215.4 0 .59-.196.59-.457 0-.266-.159-.413-.565-.565-.559-.203-.82-.501-.82-.87 0-.495.407-.902 1.061-.902.311 0 .584.083.75.19l-.134.4a1.261 1.261 0 0 0-.628-.177c-.33 0-.508.19-.508.42 0 .26.177.374.577.526.527.197.807.464.807.928 0 .546-.425.927-1.143.927-.337 0-.648-.09-.864-.216zM-30.186 213.607v.736h.8v.426h-.8v1.657c0 .381.108.597.419.597.152 0 .241-.013.324-.038l.025.425c-.108.038-.28.077-.495.077-.26 0-.47-.09-.603-.235-.153-.172-.216-.445-.216-.807v-1.676h-.476v-.426h.476v-.565l.546-.171zM-28.504 213.778c-.209 0-.349-.165-.349-.362 0-.197.146-.355.362-.355s.356.158.356.355a.35.35 0 0 1-.362.362h-.007m-.266 3.639v-3.074h.559v3.074zM-26.624 213.607v.736h.8v.426h-.8v1.657c0 .381.108.597.42.597.152 0 .24-.013.323-.038l.026.425a1.53 1.53 0 0 1-.496.077c-.26 0-.47-.09-.603-.235-.153-.172-.216-.445-.216-.807v-1.676h-.476v-.426h.476v-.565l.546-.171zM-22.636 216.578c0 .318.006.598.025.839h-.495l-.032-.502h-.013c-.14.248-.47.572-1.016.572-.482 0-1.06-.274-1.06-1.347v-1.797h.559v1.696c0 .584.184.984.686.984.374 0 .635-.26.736-.514a.763.763 0 0 0 .051-.286v-1.88h.559v2.235zM-21.049 213.607v.736h.8v.426h-.8v1.657c0 .381.108.597.42.597.152 0 .24-.013.323-.038l.026.425a1.53 1.53 0 0 1-.496.077c-.26 0-.47-.09-.603-.235-.152-.172-.216-.445-.216-.807v-1.676h-.476v-.426h.476v-.565l.546-.171zM-19.353 215.975c.012.756.489 1.067 1.047 1.067.4 0 .648-.07.851-.152l.102.393c-.197.09-.54.197-1.029.197-.94 0-1.511-.628-1.511-1.55 0-.933.552-1.663 1.448-1.663 1.003 0 1.263.883 1.263 1.448 0 .114-.006.203-.019.266l-2.152-.006m1.632-.4c.006-.349-.146-.908-.769-.908-.571 0-.812.52-.857.908zM-15.118 217.417v-2.648h-.425v-.426h.425v-.146c0-.431.102-.825.362-1.073.21-.203.489-.286.743-.286.203 0 .368.045.476.089l-.07.432a.865.865 0 0 0-.362-.07c-.47 0-.596.42-.596.89v.164h.742v.426h-.736v2.648zM-12.152 217.487c-.826 0-1.474-.61-1.474-1.582 0-1.028.68-1.632 1.524-1.632.883 0 1.48.642 1.48 1.575 0 1.143-.794 1.639-1.524 1.639h-.006m.018-.42c.534 0 .934-.501.934-1.2 0-.52-.26-1.174-.92-1.174-.655 0-.94.61-.94 1.193 0 .674.38 1.181.92 1.181h.006zM-9.924 215.302c0-.362-.006-.673-.025-.959h.489l.025.604h.02c.139-.413.482-.674.856-.674.058 0 .102.007.153.02v.52a1.668 1.668 0 0 0-.197-.012c-.393 0-.673.298-.75.71a1.755 1.755 0 0 0-.018.267v1.639h-.559l.006-2.115zM-3.53 217.283c-.196.102-.609.204-1.13.204-1.206 0-2.108-.762-2.108-2.172 0-1.347.908-2.248 2.235-2.248.528 0 .87.114 1.016.19l-.14.451a1.961 1.961 0 0 0-.857-.177c-1.003 0-1.67.64-1.67 1.765 0 1.054.604 1.72 1.639 1.72.342 0 .686-.07.908-.177zM-.367 216.578c0 .318.006.598.025.839h-.495l-.032-.502H-.88c-.14.248-.47.572-1.016.572-.483 0-1.06-.274-1.06-1.347v-1.797h.558v1.696c0 .584.184.984.686.984.374 0 .635-.26.736-.514a.767.767 0 0 0 .051-.286v-1.88h.559v2.235zM.554 215.302c0-.362-.007-.673-.026-.959h.49l.025.604h.019c.14-.413.482-.674.857-.674a.62.62 0 0 1 .152.02v.52a1.657 1.657 0 0 0-.196-.012c-.394 0-.674.298-.75.71-.012.083-.019.172-.019.267v1.639H.547l.007-2.115zM2.643 215.302c0-.362-.007-.673-.026-.959h.49l.025.604h.019c.14-.413.482-.674.857-.674a.62.62 0 0 1 .152.02v.52a1.657 1.657 0 0 0-.196-.012c-.394 0-.673.298-.75.71-.012.083-.019.172-.019.267v1.639h-.559l.007-2.115zM4.992 213.778c-.21 0-.349-.165-.349-.362 0-.197.146-.355.362-.355s.356.158.356.355a.35.35 0 0 1-.362.362h-.007m-.267 3.639v-3.074h.56v3.074zM8.39 217.309c-.146.07-.47.178-.883.178-.927 0-1.53-.63-1.53-1.575 0-.947.647-1.639 1.65-1.639.33 0 .623.083.775.165l-.127.426a1.372 1.372 0 0 0-.647-.146c-.705 0-1.086.527-1.086 1.168 0 .711.457 1.15 1.066 1.15.318 0 .527-.076.686-.146zM11.603 216.578c0 .318.006.598.025.839h-.495l-.032-.502h-.013c-.14.248-.47.572-1.016.572-.482 0-1.06-.274-1.06-1.347v-1.797h.559v1.696c0 .584.184.984.685.984.375 0 .635-.26.737-.514a.766.766 0 0 0 .05-.286v-1.88h.56v2.235zM12.517 212.908h.559v4.509h-.56zM16.562 216.578c0 .318.006.598.025.839h-.495l-.032-.502h-.013c-.14.248-.47.572-1.016.572-.482 0-1.06-.274-1.06-1.347v-1.797h.559v1.696c0 .584.184.984.686.984.374 0 .635-.26.736-.514a.767.767 0 0 0 .05-.286v-1.88h.56v2.235zM17.476 215.175c0-.324-.013-.578-.025-.832h.489l.025.496h.02c.17-.292.456-.566.97-.566.413 0 .731.254.864.616h.013c.095-.177.222-.305.35-.4a1.03 1.03 0 0 1 .672-.216c.413 0 1.016.267 1.016 1.334v1.81h-.546v-1.74c0-.597-.222-.946-.666-.946-.324 0-.566.234-.667.501a1 1 0 0 0-.045.28v1.905H19.4v-1.842c0-.495-.216-.844-.641-.844-.343 0-.603.279-.692.558a.765.765 0 0 0-.045.274v1.854h-.546v-2.242zM26.258 216.68c0 .267.013.527.045.737H25.8l-.05-.388h-.02c-.165.242-.501.458-.94.458-.622 0-.94-.439-.94-.883 0-.743.661-1.15 1.848-1.143v-.064c0-.254-.07-.717-.698-.71-.292 0-.59.082-.807.228l-.126-.375c.253-.159.628-.267 1.016-.267.946 0 1.174.642 1.174 1.258v1.15m-.546-.833c-.61-.013-1.302.096-1.302.692 0 .369.241.534.52.534a.776.776 0 0 0 .757-.514.578.578 0 0 0 .025-.178v-.534zM27.14 215.175c0-.324-.006-.578-.025-.832h.496l.032.502h.012c.153-.286.508-.572 1.016-.572.426 0 1.086.254 1.086 1.308v1.836h-.559v-1.772c0-.495-.184-.914-.711-.914-.362 0-.648.26-.75.571a.829.829 0 0 0-.037.26v1.855h-.56v-2.242zM33.307 212.908v3.715c0 .273.006.584.025.794h-.501l-.026-.534h-.013c-.171.343-.54.604-1.041.604-.743 0-1.321-.63-1.321-1.563-.006-1.028.635-1.65 1.378-1.65.476 0 .794.222.927.463h.013v-1.829h.559m-.56 2.686c0-.076-.005-.165-.025-.241a.823.823 0 0 0-.806-.641c-.578 0-.92.507-.92 1.18 0 .63.31 1.144.907 1.144a.847.847 0 0 0 .82-.667.96.96 0 0 0 .025-.241zM37.783 215.41h-1.657v1.543h1.854v.464h-2.413v-4.28h2.318v.463h-1.76v1.353h1.658zM38.83 214.343l.604 1.721c.102.286.184.54.248.794h.02c.069-.254.158-.508.26-.794l.596-1.72h.584l-1.206 3.073h-.534l-1.168-3.074h.597zM43.733 216.68c0 .267.013.527.045.737h-.502l-.051-.388h-.019c-.165.242-.502.458-.94.458-.622 0-.94-.439-.94-.883 0-.743.66-1.15 1.848-1.143v-.064c0-.254-.07-.717-.698-.71-.292 0-.59.082-.807.228l-.127-.375c.254-.159.63-.267 1.016-.267.946 0 1.175.642 1.175 1.258v1.15m-.546-.833c-.61-.013-1.302.096-1.302.692 0 .369.241.534.52.534a.776.776 0 0 0 .757-.514.578.578 0 0 0 .025-.178v-.534zM44.616 212.908h.559v4.509h-.56zM48.66 216.578c0 .318.007.598.026.839h-.495l-.032-.502h-.013c-.14.248-.47.572-1.016.572-.482 0-1.06-.274-1.06-1.347v-1.797h.559v1.696c0 .584.184.984.685.984.375 0 .635-.26.737-.514a.766.766 0 0 0 .05-.286v-1.88h.56v2.235zM51.74 216.68c0 .267.013.527.045.737h-.502l-.05-.388h-.02c-.165.242-.501.458-.94.458-.622 0-.94-.439-.94-.883 0-.743.661-1.15 1.848-1.143v-.064c0-.254-.07-.717-.698-.71-.292 0-.59.082-.806.228l-.127-.375c.253-.159.628-.267 1.015-.267.947 0 1.175.642 1.175 1.258v1.15m-.546-.833c-.61-.013-1.302.096-1.302.692 0 .369.242.534.521.534a.776.776 0 0 0 .756-.514.568.568 0 0 0 .025-.178v-.534zM53.27 213.607v.736h.8v.426h-.8v1.657c0 .381.109.597.42.597.152 0 .241-.013.324-.038l.025.425a1.53 1.53 0 0 1-.495.077c-.26 0-.47-.09-.603-.235-.153-.172-.216-.445-.216-.807v-1.676h-.477v-.426h.477v-.565l.546-.171zM54.954 213.778c-.21 0-.35-.165-.35-.362 0-.197.146-.355.362-.355s.356.158.356.355a.35.35 0 0 1-.362.362h-.006m-.267 3.639v-3.074h.558v3.074zM57.41 217.487c-.825 0-1.473-.61-1.473-1.582 0-1.028.68-1.632 1.525-1.632.882 0 1.48.642 1.48 1.575 0 1.143-.795 1.639-1.525 1.639h-.006m.019-.42c.533 0 .933-.501.933-1.2 0-.52-.26-1.174-.92-1.174-.655 0-.94.61-.94 1.193 0 .674.38 1.181.92 1.181h.007zM59.633 215.175c0-.324-.006-.578-.025-.832h.495l.032.502h.013c.152-.286.507-.572 1.016-.572.425 0 1.085.254 1.085 1.308v1.836h-.558v-1.772c0-.495-.185-.914-.712-.914-.361 0-.647.26-.749.571a.84.84 0 0 0-.038.26v1.855h-.559v-2.242z" style="fill:#656263;fill-opacity:1;fill-rule:nonzero;stroke:none;stroke-width:.352778" transform="translate(133.865 -236.115)"/></svg>
